# xmcd
#
# Track frame offsets:
#	150
#	7689
#	15379
#	23406
#	30620
#	43976
#	52227
#	71514
#	90620
#	103771
#	117209
#	126528
#
# Disc length: 1867 seconds
#
# Revision: 1
# Processed by: cddbd v1.5.2PL0 Copyright (c) Steve Scherf et al.
# Submitted via: audiograbber 1.83.01
#
DISCID=9507490c
DTITLE=Illerspatzen - Illerspatzen - Senden
DYEAR=1900
DGENRE=Volkstümliche Musik
TTITLE0=S'feaschdrla
TTITLE1=Im Wirtshaus am Bach
TTITLE2=Ei Du Mädchen vom Lande
TTITLE3=Das Dampfnudel-Lied
TTITLE4=Woisch no?
TTITLE5=Württeberger Wein
TTITLE6=Schwäbische Suppe
TTITLE7=Leise, leise lasst uns singen
TTITLE8=Rose im Schnee
TTITLE9=Einsames Glöckchen
TTITLE10=Auf, auf es ist schon Tag
TTITLE11=Als Maria übers Gebirge ging
EXTD=
EXTT0=
EXTT1=
EXTT2=
EXTT3=
EXTT4=
EXTT5=
EXTT6=
EXTT7=
EXTT8=
EXTT9=
EXTT10=
EXTT11=
PLAYORDER=
